<mxfile host="app.diagrams.net" modified="2024-10-19T14:08:06.011Z" agent="Mozilla/5.0 (Windows NT 10.0; Win64; x64) AppleWebKit/537.36 (KHTML, like Gecko) Chrome/130.0.0.0 Safari/537.36 Edg/130.0.0.0" etag="O5xdHlRA3TwBNH_wROXw" version="24.4.9" type="device">
  <diagram name="Page-1" id="1ysd88MVxQBnZTS3TPZh">
    <mxGraphModel dx="1426" dy="747" grid="1" gridSize="10" guides="1" tooltips="1" connect="1" arrows="1" fold="1" page="1" pageScale="1" pageWidth="1169" pageHeight="827" math="0" shadow="0">
      <root>
        <mxCell id="0" />
        <mxCell id="1" parent="0" />
        <mxCell id="uj_SOq50DWI60vm3cFoJ-4" style="edgeStyle=orthogonalEdgeStyle;rounded=0;orthogonalLoop=1;jettySize=auto;html=1;" edge="1" parent="1" source="uj_SOq50DWI60vm3cFoJ-1" target="uj_SOq50DWI60vm3cFoJ-3">
          <mxGeometry relative="1" as="geometry" />
        </mxCell>
        <mxCell id="uj_SOq50DWI60vm3cFoJ-1" value="ANAK BUKA APPS" style="rounded=0;whiteSpace=wrap;html=1;" vertex="1" parent="1">
          <mxGeometry x="490" y="40" width="120" height="60" as="geometry" />
        </mxCell>
        <mxCell id="uj_SOq50DWI60vm3cFoJ-7" style="edgeStyle=orthogonalEdgeStyle;rounded=0;orthogonalLoop=1;jettySize=auto;html=1;" edge="1" parent="1" source="uj_SOq50DWI60vm3cFoJ-2" target="uj_SOq50DWI60vm3cFoJ-8">
          <mxGeometry relative="1" as="geometry">
            <mxPoint x="550" y="410" as="targetPoint" />
          </mxGeometry>
        </mxCell>
        <mxCell id="uj_SOq50DWI60vm3cFoJ-2" value="BUAH" style="rounded=0;whiteSpace=wrap;html=1;" vertex="1" parent="1">
          <mxGeometry x="490" y="300" width="120" height="60" as="geometry" />
        </mxCell>
        <mxCell id="uj_SOq50DWI60vm3cFoJ-5" style="edgeStyle=orthogonalEdgeStyle;rounded=0;orthogonalLoop=1;jettySize=auto;html=1;" edge="1" parent="1" source="uj_SOq50DWI60vm3cFoJ-3" target="uj_SOq50DWI60vm3cFoJ-2">
          <mxGeometry relative="1" as="geometry" />
        </mxCell>
        <mxCell id="uj_SOq50DWI60vm3cFoJ-3" value="APPS TERBUKA" style="shape=parallelogram;perimeter=parallelogramPerimeter;whiteSpace=wrap;html=1;fixedSize=1;" vertex="1" parent="1">
          <mxGeometry x="490" y="170" width="120" height="60" as="geometry" />
        </mxCell>
        <mxCell id="uj_SOq50DWI60vm3cFoJ-16" style="edgeStyle=orthogonalEdgeStyle;rounded=0;orthogonalLoop=1;jettySize=auto;html=1;" edge="1" parent="1" source="uj_SOq50DWI60vm3cFoJ-8" target="uj_SOq50DWI60vm3cFoJ-9">
          <mxGeometry relative="1" as="geometry" />
        </mxCell>
        <mxCell id="uj_SOq50DWI60vm3cFoJ-8" value="HITUNG SKOR" style="shape=parallelogram;perimeter=parallelogramPerimeter;whiteSpace=wrap;html=1;fixedSize=1;" vertex="1" parent="1">
          <mxGeometry x="490" y="400" width="120" height="60" as="geometry" />
        </mxCell>
        <mxCell id="uj_SOq50DWI60vm3cFoJ-11" value="NO" style="edgeStyle=orthogonalEdgeStyle;rounded=0;orthogonalLoop=1;jettySize=auto;html=1;" edge="1" parent="1" source="uj_SOq50DWI60vm3cFoJ-9" target="uj_SOq50DWI60vm3cFoJ-2">
          <mxGeometry relative="1" as="geometry">
            <Array as="points">
              <mxPoint x="760" y="540" />
              <mxPoint x="760" y="330" />
            </Array>
          </mxGeometry>
        </mxCell>
        <mxCell id="uj_SOq50DWI60vm3cFoJ-12" style="edgeStyle=orthogonalEdgeStyle;rounded=0;orthogonalLoop=1;jettySize=auto;html=1;" edge="1" parent="1" source="uj_SOq50DWI60vm3cFoJ-9" target="uj_SOq50DWI60vm3cFoJ-19">
          <mxGeometry relative="1" as="geometry">
            <mxPoint x="550" y="640" as="targetPoint" />
            <Array as="points">
              <mxPoint x="550" y="580" />
              <mxPoint x="550" y="580" />
            </Array>
          </mxGeometry>
        </mxCell>
        <mxCell id="uj_SOq50DWI60vm3cFoJ-17" value="YES" style="edgeLabel;html=1;align=center;verticalAlign=middle;resizable=0;points=[];" vertex="1" connectable="0" parent="uj_SOq50DWI60vm3cFoJ-12">
          <mxGeometry x="-0.1727" y="-1" relative="1" as="geometry">
            <mxPoint as="offset" />
          </mxGeometry>
        </mxCell>
        <mxCell id="uj_SOq50DWI60vm3cFoJ-9" value="KURANG DARI 100" style="rhombus;whiteSpace=wrap;html=1;" vertex="1" parent="1">
          <mxGeometry x="510" y="500" width="80" height="80" as="geometry" />
        </mxCell>
        <mxCell id="uj_SOq50DWI60vm3cFoJ-19" value="MASUK LEVEL 2" style="rounded=0;whiteSpace=wrap;html=1;" vertex="1" parent="1">
          <mxGeometry x="490" y="620" width="120" height="60" as="geometry" />
        </mxCell>
      </root>
    </mxGraphModel>
  </diagram>
</mxfile>
